<svg width="9" height="18" viewBox="0 0 9 18" fill="none" xmlns="http://www.w3.org/2000/svg">
<path fill-rule="evenodd" clip-rule="evenodd" d="M0.188815 0.720824C0.248515 0.660151 0.319437 0.612014 0.397518 0.57917C0.475599 0.546325 0.559305 0.529419 0.643842 0.529419C0.728378 0.529419 0.812084 0.546325 0.890165 0.57917C0.968246 0.612014 1.03917 0.660151 1.09887 0.720824L8.81118 8.53891C8.87104 8.59943 8.91852 8.67133 8.95092 8.75048C8.98332 8.82963 9 8.91448 9 9.00018C9 9.08587 8.98332 9.17073 8.95092 9.24988C8.91852 9.32903 8.87104 9.40093 8.81118 9.46144L1.09887 17.2795C0.978188 17.4019 0.81451 17.4706 0.643842 17.4706C0.473174 17.4706 0.309495 17.4019 0.188815 17.2795C0.0681343 17.1572 0.000336493 16.9913 0.000336493 16.8183C0.000336493 16.6453 0.0681343 16.4793 0.188815 16.357L7.44739 9.00018L0.188815 1.64336C0.128963 1.58284 0.0814771 1.51094 0.0490771 1.43179C0.0166771 1.35264 0 1.26779 0 1.18209C0 1.0964 0.0166771 1.01154 0.0490771 0.93239C0.0814771 0.853238 0.128963 0.781343 0.188815 0.720824Z" fill="#94CE5A"/>
</svg>
